<svg width="80" height="48" viewBox="0 0 80 48" fill="none" xmlns="http://www.w3.org/2000/svg">
<path d="M2.2017 39V9.90909H22.0597V15.6193H9.23295V21.5852H20.7955V27.3097H9.23295V39H2.2017ZM24.1513 9.90909H32.0064L38.157 22.0824H38.4126L44.5632 9.90909H52.4183L41.7791 29.2841V39H34.7905V29.2841L24.1513 9.90909ZM55.3658 39V9.90909H67.3828C69.5608 9.90909 71.4406 10.3352 73.022 11.1875C74.6129 12.0303 75.8393 13.2093 76.701 14.7244C77.5627 16.2301 77.9936 17.982 77.9936 19.9801C77.9936 21.9877 77.5533 23.7443 76.6726 25.25C75.8014 26.7462 74.5561 27.9062 72.9368 28.7301C71.3175 29.554 69.3951 29.9659 67.1697 29.9659H59.755V24.4261H65.8629C66.9235 24.4261 67.8089 24.2415 68.5192 23.8722C69.2389 23.5028 69.7834 22.9867 70.1527 22.3239C70.522 21.6515 70.7067 20.8703 70.7067 19.9801C70.7067 19.0805 70.522 18.304 70.1527 17.6506C69.7834 16.9877 69.2389 16.4763 68.5192 16.1165C67.7995 15.7566 66.9141 15.5767 65.8629 15.5767H62.397V39H55.3658Z" fill="black"/>
</svg>
