<svg width="1177" height="266" viewBox="0 0 1177 266" fill="none" xmlns="http://www.w3.org/2000/svg">
<path d="M1132.85 18.2208C1132.63 15.9217 1134.98 14.2493 1137.08 15.2106L1163.1 27.1221C1165.2 28.0834 1165.47 30.9573 1163.59 32.2952L1140.27 48.8739C1138.38 50.2118 1135.76 49.0103 1135.54 46.7111L1132.85 18.2208Z" fill="#FF0000"/>
<path d="M385.442 153.434C383.196 152.895 382.376 150.127 383.966 148.452L404.131 127.197C405.721 125.521 408.528 126.195 409.184 128.409L417.509 156.501C418.165 158.715 416.178 160.809 413.933 160.27L385.442 153.434Z" fill="#FF0000" fill-opacity="0.31"/>
<circle cx="32.5" cy="97.0745" r="32.5" fill="#FFE600" fill-opacity="0.53"/>
<circle cx="896" cy="245.574" r="20" fill="#456EFF" fill-opacity="0.48"/>
</svg>
